<?xml version="1.0" standalone="no"?>
<!DOCTYPE svg PUBLIC "-//W3C//DTD SVG 20010904//EN"
 "http://www.w3.org/TR/2001/REC-SVG-20010904/DTD/svg10.dtd">
<svg version="1.0" xmlns="http://www.w3.org/2000/svg"
 width="491.000000pt" height="491.000000pt" viewBox="0 0 491.000000 491.000000"
 preserveAspectRatio="xMidYMid meet">
<metadata>
Created by potrace 1.14, written by Peter Selinger 2001-2017
</metadata>
<g transform="translate(0.000000,491.000000) scale(0.100000,-0.100000)"
fill="#000000" stroke="none">
<path d="M1973 4139 c-168 -28 -310 -165 -377 -362 -26 -78 -27 -89 -41 -617
-8 -298 -17 -348 -70 -404 -47 -50 -90 -69 -188 -83 -23 -3 -43 -6 -45 -8 -5
-4 -6 -415 -1 -419 2 -2 29 -6 61 -10 146 -15 211 -82 233 -241 3 -22 8 -132
10 -245 5 -235 14 -489 20 -540 10 -98 83 -239 163 -318 95 -93 191 -128 355
-131 l97 -2 0 191 c0 174 -1 190 -17 191 -60 2 -100 17 -138 51 -40 35 -73 98
-80 155 -2 21 -7 126 -10 233 -5 224 -16 477 -20 500 -1 8 -6 35 -10 60 -4 25
-24 82 -46 127 -43 90 -89 137 -173 177 l-49 23 36 12 c79 26 168 124 207 228
39 104 41 129 55 643 7 246 9 261 35 314 27 54 56 74 140 94 l70 17 0 188 0
187 -82 -1 c-46 -1 -107 -5 -135 -10z"/>
<path d="M2719 4144 c-4 -36 -1 -366 3 -370 3 -2 23 -7 44 -9 67 -9 102 -25
137 -64 32 -36 39 -51 52 -120 2 -13 7 -124 10 -245 11 -436 17 -519 46 -605
41 -117 110 -202 198 -243 l50 -22 -47 -23 c-74 -35 -126 -85 -165 -160 -61
-116 -68 -178 -83 -703 -6 -231 -8 -257 -27 -302 -33 -78 -117 -138 -194 -138
-15 0 -23 -6 -24 -17 -4 -97 -3 -347 2 -355 5 -7 48 -9 126 -6 109 5 126 9
194 40 103 48 185 131 237 240 64 134 61 101 77 719 3 119 8 227 10 240 2 13
6 36 9 50 7 42 43 104 75 132 41 35 105 55 179 56 l32 1 0 214 0 213 -42 7
c-102 15 -140 30 -182 72 -65 63 -74 111 -81 424 -12 500 -13 517 -42 605 -49
154 -140 264 -270 326 -80 39 -89 41 -203 46 -68 4 -120 2 -121 -3z"/>
<path d="M689 3770 c0 -14 0 -617 -1 -1340 l0 -1315 286 -3 286 -2 0 165 0
165 -47 1 c-27 1 -90 1 -140 1 l-93 -1 0 1015 0 1014 140 0 140 0 0 160 c0
121 -3 160 -12 161 -7 0 -136 1 -286 2 l-272 2 -1 -25z"/>
<path d="M3649 3758 c-1 -49 -1 -231 0 -263 l1 -25 139 0 139 0 -2 -1012 -1
-1013 -133 -1 c-73 -1 -136 -4 -139 -8 -3 -3 -6 -77 -7 -166 l-1 -160 288 0
287 0 0 1340 c0 1065 -3 1340 -12 1341 -7 0 -136 1 -286 2 l-272 2 -1 -37z"/>
<path d="M320 3259 l-105 -72 -52 -166 c-28 -91 -76 -244 -107 -340 -64 -200
-65 -160 10 -425 25 -88 48 -170 50 -180 4 -21 64 -239 89 -321 14 -48 20 -54
115 -117 55 -37 102 -63 104 -59 5 7 8 1751 3 1751 -1 0 -49 -32 -107 -71z"/>
<path d="M4479 3313 c-4 -83 -1 -1734 3 -1738 7 -8 194 116 207 137 6 9 42
133 81 275 38 142 74 272 79 288 6 17 22 75 36 129 l25 99 -29 91 c-32 102
-103 329 -152 483 -17 56 -39 108 -48 116 -16 14 -163 116 -188 131 -9 5 -13
1 -14 -11z"/>
</g>
</svg>
