<svg version="1.1" id="Layer_1"
  xmlns="http://www.w3.org/2000/svg" x="0" y="0" viewBox="0 0 224.9 292.2" xml:space="preserve">
  <style>.st0{fill-rule:evenodd;clip-rule:evenodd}.st0,.st1{fill:#000000}</style>
  <path id="Path" class="st0" d="M6.3 193.1l.4 4.6c1.1-1.6 2.6-2.9 4.3-3.9 1.9-.9 4-1.4 6.1-1.4 2.1-.1 4.2.5 6 1.6 1.7 1.2 3.1 2.9 3.8 4.8 1-1.9 2.5-3.5 4.4-4.7 1.9-1.2 4.1-1.8 6.3-1.7 3.2-.1 6.3 1.2 8.4 3.6 2.1 2.4 3.1 6.1 3.1 11v21h-6.3v-20.9c0-3.4-.6-5.9-1.8-7.3-1.3-1.5-3.3-2.3-5.3-2.2-2-.1-3.9.8-5.3 2.3-1.4 1.6-2.2 3.6-2.4 5.7V228h-6.4v-20.9c0-3.3-.6-5.7-1.8-7.2-1.3-1.6-3.2-2.4-5.2-2.3-1.7-.1-3.3.3-4.8 1.2-1.3.8-2.3 2-2.9 3.3V228H.6v-34.9h5.7z"></path>
  <path class="st0" d="M67.6 184.7v8.4h6.6v4.7h-6.6V219c-.1 1.2.2 2.5 1 3.4.7.7 1.7 1 2.7 1 .4 0 .8 0 1.2-.1l1.2-.3.8 4.4c-.6.5-1.3.8-2.1 1-.9.2-1.8.4-2.8.4-2.3.1-4.5-.7-6.2-2.3-1.5-1.6-2.3-4.1-2.3-7.4V198h-5.5v-4.7h5.5v-8.4h6.5z"></path>
  <path id="Shape" class="st1" d="M96 236.8c3.1 0 5.4-.7 6.8-2.1 1.4-1.4 2.1-3.5 2.1-6.4v-3.9c-1.1 1.4-2.5 2.5-4.1 3.3-1.7.8-3.6 1.1-5.5 1.1-3.9.2-7.7-1.6-10.1-4.6-2.5-3.1-3.7-7.1-3.7-12.1v-.7c0-5.6 1.2-10.1 3.7-13.6 2.3-3.3 6.1-5.3 10.2-5.1 2 0 4 .4 5.8 1.3 1.7.9 3.1 2.2 4.2 3.9l.8-4.6h5.1v35.1c0 4.5-1.3 7.9-3.9 10.3-2.6 2.4-7.6 3.7-13.2 3.6l1.8-5.5zm-8.1-24.9c-.1 3 .6 5.9 2.2 8.4 1.5 2.2 4.1 3.4 6.8 3.2 1.7.1 3.4-.4 4.8-1.3s2.5-2.2 3.2-3.7v-16.1c-.8-1.4-1.9-2.6-3.2-3.5-1.4-.9-3.1-1.4-4.7-1.3-2.8-.1-5.5 1.3-6.8 3.8-1.6 3-2.4 6.4-2.3 9.8v.7z"></path>
  <path class="st0" d="M127.3 243h-6.4v-6.6h6.4z"></path>
  <path class="st1" d="M138.4 210.3c0-5.2 1.4-9.4 4.2-12.8 2.8-3.3 7-5.2 11.4-5 4.8 0 8.7 1.7 11.5 5 2.8 3.3 4.2 7.6 4.2 12.8v.7c0 5.2-1.4 9.5-4.2 12.8-2.8 3.3-6.6 5-11.4 5-4.8 0-8.6-1.7-11.4-5-2.8-3.3-4.2-7.6-4.2-12.8v-.7zm6.3.6c-.1 3.2.7 6.4 2.3 9.2 1.6 2.3 4.2 3.6 6.9 3.6s5.3-1.3 6.9-3.6c1.7-2.8 2.5-5.9 2.4-9.2v-.7c.1-3.2-.7-6.4-2.4-9.1-1.5-2.4-4.1-3.8-6.9-3.6-2.8-.1-5.4 1.3-6.9 3.6-1.6 2.7-2.5 5.9-2.3 9.1v.7z"></path>
  <path class="st0" d="M184 193.1l.4 5.2c1.1-1.8 2.6-3.2 4.4-4.3 1.8-1 3.9-1.6 6-1.5 3.8 0 6.7 1.1 8.8 3.3 2.1 2.2 3.1 5.6 3.1 10.2v22h-6.4v-21.9c0-3.1-.6-5.2-1.8-6.5-1.2-1.3-3.1-1.9-5.6-1.9-1.7 0-3.4.5-4.9 1.4-1.4.9-2.6 2.1-3.4 3.6V228h-6.3v-34.9h5.7zM223.6 228.4h-6.4v-50.3h6.4zM87.5 242.1H0v-5.3h89.4"></path>
  <path id="Rectangle" class="st0" d="M140 236.6h84.5v5.4H140z"></path>
  <path d="M130.6 29.4L203.5 49c2.1.6 3.4 2.8 2.8 4.9l-28.4 106c-.6 2.1-2.8 3.4-4.9 2.8l-72.9-19.5c-2.1-.6-3.4-2.8-2.8-4.9l28.4-106c.6-2.2 2.8-3.4 4.9-2.9z" fill="none" stroke="#000000" stroke-width="11"></path>
  <path class="st0" d="M57.1 133.6L29.4 30.3l70.3-18.8 10 37.3 5.5-20.7-6-22.4c-1.1-4-5.2-6.4-9.2-5.3L23.5 20.7c-1.9.5-3.6 1.8-4.6 3.5s-1.3 3.8-.7 5.7l29.3 109.6c.9 3.3 3.8 5.6 7.2 5.6.7 0 1.3-.1 1.9-.3l29.4-7.9 3.2-11.9-32.1 8.6zM224.9 251H90.1l-15.2 41.2h145c2.8 0 5-2.2 5-5V251zm-108.8 12.3h-6.7v19.3h-3.7v-19.3H99v-3h17.2v3zm19.8 10.2c0 2.7-.9 5-2.6 6.8-1.7 1.8-3.9 2.7-6.7 2.7-2.7 0-4.8-.9-6.5-2.7-1.7-1.8-2.5-4-2.5-6.8v-4c0-2.7.8-5 2.5-6.8 1.7-1.8 3.8-2.7 6.5-2.7s4.9.9 6.7 2.7c1.7 1.8 2.6 4.1 2.6 6.8v4zm17.3 9.1l-7.1-9.8h-2.6v9.8h-3.8V260h3.8v9.6h2.1l7.1-9.6h4.5l-8.2 10.8 8.8 11.9h-4.6zm22 0h-15v-22.3h14.9v3h-11.2v6.3h9.8v3h-9.8v7h11.3v3zm20.5 0H192l-9.9-16.3h-.1v16.2h-3.7v-22.3h3.7l9.9 16.3h.1v-16.2h3.7v22.3zm18.5-1.3c-1.5 1.1-3.4 1.6-5.9 1.6-2.3 0-4.4-.6-6.1-1.9-1.8-1.2-2.6-2.9-2.6-5.1v-.1h3.6c0 1.4.5 2.4 1.4 3 .9.7 2.2 1 3.7 1 2.2 0 3.6-.7 4.2-2.1.3-1.4 0-2.5-.9-3.3-.7-.6-1.9-1.1-3.7-1.6-2.5-.7-4.4-1.5-5.7-2.6-1.3-1.1-2-2.5-2-4.2 0-1.8.7-3.3 2.2-4.4 1.5-1.2 3.4-1.7 5.7-1.7 2.4 0 4.4.7 5.9 2s2.2 2.9 2.2 4.8v.1h-3.6c0-1.1-.4-2.1-1.2-2.8-.8-.7-1.9-1.1-3.3-1.1s-2.4.3-3.1.9c-.7.6-1.1 1.4-1.1 2.3 0 .8.4 1.5 1.2 2.1.8.6 2.1 1.1 3.9 1.6 2.4.6 4.2 1.5 5.5 2.7 1.2 1.1 1.9 2.6 1.9 4.3 0 1.9-.7 3.4-2.2 4.5z"></path>
  <path class="st0" d="M126.7 263.1c-1.6 0-2.9.6-3.9 1.8-.9 1.2-1.4 2.7-1.4 4.6v4c0 1.9.5 3.4 1.4 4.6.9 1.2 2.2 1.8 3.9 1.8 1.7 0 3-.6 4-1.8 1-1.2 1.5-2.7 1.5-4.6v-4c0-1.9-.5-3.4-1.5-4.6-1-1.2-2.3-1.8-4-1.8z"></path>
</svg>
