<svg id="Layer_1" alt="Card Conduit logo" data-name="Layer 1" xmlns="http://www.w3.org/2000/svg" xmlns:xlink="http://www.w3.org/1999/xlink" viewBox="0 0 164.24 281.83"><defs><style>.cls-1{fill:url(#amethyst);}</style><linearGradient id="amethyst" x1="98" y1="180.07" x2="262.24" y2="180.07" gradientUnits="userSpaceOnUse"><stop offset="0" stop-color="#563e98"/><stop offset="1" stop-color="#98266d"/></linearGradient></defs><title>cc-monogram-letters-amethyst</title><path class="cls-1" d="M127.71,201.23a111.48,111.48,0,0,0-4.79,32.8c0,44.1,24.66,87,77.73,87,26.5,0,45.67-9.38,60.82-26.59a3.1,3.1,0,0,0-.3-4.33L259,288.13a3.06,3.06,0,0,0-4.3.25C238.87,305.6,222.42,312,201.15,312c-46.59,0-68.76-38.37-68.76-78A103,103,0,0,1,136,206.78a2.36,2.36,0,0,1,3.53-1.47c.49.26,1,.51,1.5.76a3.78,3.78,0,0,1,2,4.2,96.75,96.75,0,0,0-2.84,23.51c0,36.13,19.93,72,61.54,72,18.85,0,33.12-5,47.86-21.85a3.19,3.19,0,0,0-.25-4.39L246.48,277a2.78,2.78,0,0,0-4.12.3c-12.09,14.6-24.4,19.55-41.21,19.55-35.63,0-51.57-31.64-51.57-63a87.72,87.72,0,0,1,2.33-20.32,3,3,0,0,1,3.71-2.18,85.68,85.68,0,0,0,20.12,2.29c26.17,0,45.2-9.16,60.26-26a2.69,2.69,0,0,1,4.09-.1c.8.89,1.58,1.81,2.33,2.76a2.78,2.78,0,0,0,4.1.39l2.7-2.41a3.22,3.22,0,0,0,.35-4.4c-13.68-16.37-28.66-22.05-48.42-22.05-20,0-34.72,8.13-44.72,20.5a3.73,3.73,0,0,1-4.54,1c-.39-.23-.78-.46-1.16-.7a2.74,2.74,0,0,1-.68-4.09c11.25-13.89,28-22.93,50.6-22.93,24.85,0,38.47,6.64,54,23.88a3,3,0,0,0,4.29.26l2.18-1.94a3.23,3.23,0,0,0,.38-4.4c-13.63-16.55-33.06-26.77-60.9-26.77-25.78,0-44.86,10.12-57.66,25.64a2.42,2.42,0,0,1-3.88.09c-9.83-12.07-14.45-29.05-14.45-45.95,0-31.39,16-63,51.57-63,17.6,0,31.22,6.84,41.27,19.5a2.78,2.78,0,0,0,4.1.39l2.7-2.42a3.21,3.21,0,0,0,.35-4.39C211,60,196,54.36,176.23,54.36c-42.1,0-61,36.12-61,72,0,19.46,5.79,38.84,17.63,52.59a54.27,54.27,0,0,0,28,17.47,63.45,63.45,0,0,0,15.94,2c18.18,0,32.11-4.68,46.31-20.12a4,4,0,0,1,4.71-.84l.76.45a2.45,2.45,0,0,1,.51,3.89c-15.59,16.62-31.86,22.85-52.79,22.85a74.69,74.69,0,0,1-17.53-2,60.83,60.83,0,0,1-28.93-16.06c-15-14.9-22.3-37.2-22.3-59.92,0-40.11,21.67-78.48,68.27-78.48,24.84,0,38.46,6.64,54,23.88a3,3,0,0,0,4.29.26l2.18-1.94a3.22,3.22,0,0,0,.38-4.4C223,49.38,203.57,39.16,175.74,39.16,122.67,39.16,98,82,98,126.61c0,26.86,9.16,53.26,28.3,69.79A5,5,0,0,1,127.71,201.23Zm39.17-12.61c-1.66-.29-2.13-1.68-1-2.92,8.33-9.13,20-14.95,35.27-14.95a60,60,0,0,1,11.11,1c1.65.31,2.07,1.67.89,2.86-10.76,10.93-22.09,14.79-36.92,14.79A54.85,54.85,0,0,1,166.88,188.62Z" transform="translate(-98 -39.16)"/></svg>
