<?xml version="1.0" encoding="utf-8"?>
<svg version="1.1" id="Layer_1" xmlns="http://www.w3.org/2000/svg" xmlns:xlink="http://www.w3.org/1999/xlink" x="0px" y="0px"
	 viewBox="0 0 108 108" style="enable-background:new 0 0 108 108;" xml:space="preserve">
<style type="text/css">
	.st0{fill:#165370;}
	.st1{fill:#E6E6E6;}
	.st2{fill:#1A2130;}
</style>
<path id="XMLID_70_" class="st0" d="M34.1,105.4c-1.3,0-2.5-0.9-2.8-2.1L9,21c-0.2-0.7-0.1-1.5,0.3-2.2c0.4-0.7,1-1.2,1.8-1.4
	L65.9,2.7c0.2-0.1,0.5-0.1,0.8-0.1c1.3,0,2.5,0.9,2.8,2.1L91.7,87c0.4,1.5-0.5,3.1-2.1,3.6l-54.8,14.7
	C34.6,105.3,34.3,105.4,34.1,105.4z"/>
<path id="XMLID_71_" class="st1" d="M50.7,108c-1,0-1.9-0.5-2.4-1.3L0.5,36.1c-0.4-0.6-0.6-1.4-0.4-2.2c0.1-0.8,0.6-1.4,1.2-1.9
	L48.4,0.5C48.9,0.2,49.4,0,50,0c1,0,1.9,0.5,2.4,1.3l47.8,70.7c0.4,0.6,0.6,1.4,0.4,2.2c-0.1,0.8-0.6,1.4-1.2,1.9l-47.1,31.5
	C51.9,107.8,51.3,108,50.7,108z"/>
</svg>
