<?xml version="1.0" standalone="no"?>
<svg xmlns="http://www.w3.org/2000/svg" id="cardcaslte" width="1024pt" height="1024pt" version="1.0" viewBox="0 0 1024 1024">
<circle cx="50%" cy="50%" r="50%" width="100%" height="100%" fill="#fff"/>
    <g fill="#4a3587" transform="translate(0.000000,1024.000000) scale(0.100000,-0.100000)">
        <path d="M4860 9554 c-19 -2 -93 -9 -165 -15 -1081 -91 -2156 -639 -2894
-1474 -630 -714 -999 -1555 -1103 -2520 -17 -158 -17 -690 0 -855 141 -1364
855 -2542 1999 -3298 583 -386 1261 -624 1998 -704 158 -17 690 -17 855 0
1062 110 2018 568 2751 1319 717 734 1145 1652 1251 2683 17 164 17 686 0 850
-110 1062 -568 2018 -1319 2751 -722 705 -1624 1132 -2631 1245 -128 15 -660
27 -742 18z m700 -659 c1111 -128 2081 -705 2718 -1614 313 -448 528 -966 626
-1511 44 -246 50 -328 51 -670 0 -340 -3 -384 -46 -645 -192 -1168 -959 -2213
-2019 -2754 -426 -217 -795 -330 -1320 -403 -149 -21 -730 -17 -890 5 -319 45
-544 98 -815 194 -794 279 -1486 829 -1942 1543 -317 497 -507 1036 -580 1650
-24 202 -23 620 1 825 106 899 492 1689 1127 2310 669 654 1501 1023 2459
1089 112 8 499 -4 630 -19z"/>
        <path d="M5072 7369 c-39 -12 -632 -398 -680 -443 -18 -16 -42 -51 -55 -76
-22 -45 -22 -48 -27 -667 -5 -611 -5 -622 -26 -650 -48 -64 -114 -85 -321
-100 l-82 -6 -35 35 c-20 20 -37 49 -40 69 -4 19 -22 202 -40 407 -32 350 -36
375 -57 398 -12 13 -34 24 -48 24 -29 0 -363 -208 -420 -261 -49 -46 -71 -102
-71 -181 0 -37 40 -627 90 -1310 79 -1097 92 -1248 109 -1285 20 -41 68 -85
106 -97 11 -3 362 -72 780 -152 696 -134 770 -147 875 -148 108 0 159 8 885
148 476 92 784 156 807 167 60 31 89 84 98 181 5 46 48 632 96 1303 98 1355
96 1274 28 1353 -31 36 -322 232 -399 269 -46 22 -83 11 -100 -30 -7 -18 -27
-194 -45 -397 -17 -201 -36 -381 -41 -401 -21 -85 -82 -101 -269 -74 -139 20
-177 37 -207 95 l-23 43 0 591 c0 356 -4 605 -10 626 -5 20 -23 57 -40 83 -26
41 -70 74 -341 252 -171 113 -324 212 -341 221 -38 20 -114 26 -156 13z"/>
    </g>
</svg>
