<svg xmlns="http://www.w3.org/2000/svg" viewBox="0 0 956.357 282.666"><defs><style>.a{fill:#5094ad;opacity:0.35;}.b{fill:#71d0f1;}.c{fill:#5da0c9;}.d{fill:#3b2318;}</style></defs><title>MTGJSON_logo</title><path class="a" d="M916.316,93.653H109.926a42.911,42.911,0,0,0-42.911,42.911v63.5h-22v30.661H50.3a74.679,74.679,0,0,1,16.715,2.5V313.2a42.911,42.911,0,0,0,42.911,42.911h806.39A42.911,42.911,0,0,0,959.227,313.2V136.564A42.911,42.911,0,0,0,916.316,93.653Z" transform="translate(-45.014 -73.442)"/><path class="a" d="M966.391,199.219v30.057l-6.577,1.239,7.707,9.448c1.018-9.448,28.033-10.083,28.033-10.083h5.652V199.219Z" transform="translate(-45.014 -73.442)"/><rect class="b" x="37.168" y="0.144" width="882.516" height="262.455" rx="42.911" ry="42.911"/><path class="c" d="M85.345,292.821c-.02-21.662,2.838-32.953,2.821-52.175-.011-10.678-8.343-21.959-39.341-22.54L48.8,191.868c31-.64,39.308-11.936,39.3-22.614-.018-18.917-2.9-30.813-2.918-52.17-.032-32.951,16.605-43.339,53.341-43.373l22.1-.021.021,23.8-11.767.011c-23.821.022-29.271,4.3-29.254,21.385.015,16.17,1.465,31.729,1.481,49.73.022,23.187-8.294,32.043-28.667,35.723v1.22c20.381,3.643,28.712,12.483,28.734,35.67.017,18.612-1.405,33.257-1.39,49.733.017,17.085,5.474,21.351,29.3,21.329l11.768-.011.021,23.8-22.1.021C102.03,336.13,85.376,325.772,85.345,292.821Z" transform="translate(-45.014 -73.442)"/><path class="c" d="M101.049,328.6c13.718,10.467,35.6,7.344,35.6,7.344Z" transform="translate(-45.014 -73.442)"/><path class="c" d="M82.441,183.119a15.551,15.551,0,0,0,7.189-12.476l44.934-96.9H122.036S107.921,74.326,98.511,83c-19.453,17.445-16.282,32.67-16.282,32.67Z" transform="translate(-45.014 -73.442)"/><path class="c" d="M82.335,286.414c-1.269,21.885,8.881,32.352,8.881,32.352V224.881l-8.881,1.585S83.6,264.528,82.335,286.414Z" transform="translate(-45.014 -73.442)"/><path class="c" d="M949.122,328.35c-13.718,10.467-35.6,7.344-35.6,7.344Z" transform="translate(-45.014 -73.442)"/><path class="c" d="M967.73,182.87a15.551,15.551,0,0,1-7.19-12.475L915.607,73.5h12.528s14.115.582,23.524,9.251c19.454,17.445,16.282,32.67,16.282,32.67Z" transform="translate(-45.014 -73.442)"/><path class="c" d="M967.836,286.165c1.268,21.886-8.881,32.353-8.881,32.353V224.632l8.881,1.586S966.567,264.28,967.836,286.165Z" transform="translate(-45.014 -73.442)"/><path class="c" d="M911.405,335.847l-22.1-.02.021-23.8,11.768.011c23.821.022,29.278-4.244,29.295-21.329.014-16.476-1.408-31.121-1.39-49.733.021-23.187,8.352-32.027,28.733-35.67v-1.22c-20.373-3.68-28.688-12.536-28.667-35.723.017-18,1.467-33.56,1.482-49.73.016-17.086-5.433-21.363-29.254-21.385l-11.768-.011.022-23.8,22.1.021c36.737.034,53.373,10.422,53.342,43.373-.019,21.357-2.9,33.253-2.918,52.17-.01,10.678,8.3,21.974,39.3,22.613l-.024,26.239c-31,.581-39.33,11.862-39.341,22.54-.018,19.222,2.841,30.513,2.821,52.175C964.8,325.524,948.142,335.882,911.405,335.847Z" transform="translate(-45.014 -73.442)"/><path class="d" d="M200.532,159.562a9.36,9.36,0,0,1,2.625-6.375,8.739,8.739,0,0,1,6.825-2.925,8.593,8.593,0,0,1,6.451,2.85,9.315,9.315,0,0,1,2.7,6.6v29.1l-17.4-25.05A7.384,7.384,0,0,1,200.532,159.562Zm26.85,0a9.365,9.365,0,0,1,2.625-6.375,8.739,8.739,0,0,1,6.825-2.925,8.588,8.588,0,0,1,6.45,2.85,9.312,9.312,0,0,1,2.7,6.6v29.1l-17.4-25.05A7.376,7.376,0,0,1,227.382,159.562Z" transform="translate(-45.014 -73.442)"/><path class="d" d="M256.331,244.463l9.45-9.45v-69.6l-9.45-9.45h29.55l21.6,38.4,21.75-38.4h27.75l-9.6,9.45v69.6l9.6,9.45h-37.5l9.451-9.45V175.762l-26.4,47.25-26.4-47.25v59.251l9.6,9.45Z" transform="translate(-45.014 -73.442)"/><path class="d" d="M413.681,244.463h-37.5l9.45-9.45v-69.9h-12.3l-12,12v-21.15h67.2v21.15l-12-12h-12.45v69.9Z" transform="translate(-45.014 -73.442)"/><path class="d" d="M463.105,242.738a49.51,49.51,0,0,1-14.925-10.2,48.7,48.7,0,0,1-10.35-14.925,42.243,42.243,0,0,1,0-34.8,49.415,49.415,0,0,1,10.275-14.925,48.353,48.353,0,0,1,14.925-10.2,42.639,42.639,0,0,1,17.25-3.675,67.985,67.985,0,0,1,13.125,1.05,49.505,49.505,0,0,1,11.625,4.2v21.6l-13.95-14.1a15.6,15.6,0,0,0-4.875-3.225,16.185,16.185,0,0,0-5.925-.975,18.832,18.832,0,0,0-10.875,3.225,24.674,24.674,0,0,0-7.725,8.7,46.069,46.069,0,0,0-4.5,12.225,62.063,62.063,0,0,0-1.5,13.5,78.968,78.968,0,0,0,1.2,14.025,43.846,43.846,0,0,0,3.975,12.15,22.834,22.834,0,0,0,7.65,8.776,20.505,20.505,0,0,0,11.775,3.3,10.287,10.287,0,0,0,5.4-1.2,17.934,17.934,0,0,0,3.75-3.151,3.6,3.6,0,0,1,.9-.9v-27.75l-8.85-8.85h36.3l-9,8.85v34.5a49.77,49.77,0,0,1-13.275,5.175,76.058,76.058,0,0,1-15.225,1.275A42.122,42.122,0,0,1,463.105,242.738Z" transform="translate(-45.014 -73.442)"/><path class="d" d="M561.579,155.962l-9.6,9.45v77.251a29.031,29.031,0,0,1-1.8,10.125,27.256,27.256,0,0,1-5.1,8.625,24.519,24.519,0,0,1-7.8,5.925,22.139,22.139,0,0,1-9.75,2.175h-25.05l13.35-18.15,10.95,10.8q6.75-2.25,6.75-9V165.412l-9.45-9.45Z" transform="translate(-45.014 -73.442)"/><path class="d" d="M623.527,228.937a23.864,23.864,0,0,1-5.25,8.55,25.169,25.169,0,0,1-9.375,6.075,36.844,36.844,0,0,1-13.425,2.25,50.911,50.911,0,0,1-9.45-.75l-20.1-3.3,9.45-18.151,11.1,12.45a13.166,13.166,0,0,0,8.1,2.7,13.7,13.7,0,0,0,9.226-3.6q4.124-3.6,4.125-10.2a11.46,11.46,0,0,0-1.5-6.15,12.758,12.758,0,0,0-3.75-3.9l-21.151-13.05a28.963,28.963,0,0,1-6.825-5.475,26,26,0,0,1-4.274-6.225,27.624,27.624,0,0,1-2.1-5.85,22.963,22.963,0,0,1-.6-4.95,25.621,25.621,0,0,1,1.576-8.925,21.711,21.711,0,0,1,4.95-7.725,23.987,23.987,0,0,1,8.55-5.475,33.017,33.017,0,0,1,12.075-2.025q1.647,0,4.05.225t4.2.525l19.349,3.3-9.45,16.8-10.349-11.1a12.451,12.451,0,0,0-6.75-2.1,11.136,11.136,0,0,0-8.326,3.3,9.846,9.846,0,0,0-3.224,6.9,12.311,12.311,0,0,0,2.024,6.45,19.405,19.405,0,0,0,6.226,6l21.3,13.05a25.188,25.188,0,0,1,7.95,7.95,22.461,22.461,0,0,1,3.3,12.45A30.029,30.029,0,0,1,623.527,228.937Z" transform="translate(-45.014 -73.442)"/><path class="d" d="M634.551,182.737a48.674,48.674,0,0,1,8.325-15.075,39.96,39.96,0,0,1,12.9-10.425,36.854,36.854,0,0,1,32.7,0,40.821,40.821,0,0,1,12.976,10.425,46.75,46.75,0,0,1,8.325,15.075,54.5,54.5,0,0,1,2.85,17.475,53.186,53.186,0,0,1-2.925,17.475,48.627,48.627,0,0,1-8.325,15.075,39.943,39.943,0,0,1-12.9,10.425,36.846,36.846,0,0,1-32.7,0,39.908,39.908,0,0,1-12.9-10.425,48.606,48.606,0,0,1-8.325-15.075,53.663,53.663,0,0,1,0-34.95Zm47.1,51.75a21.524,21.524,0,0,0,5.85-8.775,50.355,50.355,0,0,0,2.775-11.925,119.084,119.084,0,0,0,.75-13.575,116.593,116.593,0,0,0-.75-13.575,51.539,51.539,0,0,0-2.775-11.85,21.471,21.471,0,0,0-5.85-8.85,15.13,15.13,0,0,0-19.051,0,20.9,20.9,0,0,0-5.774,8.775,55.506,55.506,0,0,0-2.775,11.85,107.488,107.488,0,0,0-.826,13.65,106.177,106.177,0,0,0,.826,13.5,53.98,53.98,0,0,0,2.85,11.925,21.809,21.809,0,0,0,5.775,8.85,13.59,13.59,0,0,0,9.45,3.375A13.877,13.877,0,0,0,681.651,234.487Z" transform="translate(-45.014 -73.442)"/><path class="d" d="M748.325,244.463h-29.4l9.45-9.45v-69.6l-9.45-9.45h24.6l36.75,52.8v-43.35l-9.45-9.45h29.25l-9.45,9.45v89.4l-51.9-75v55.2Z" transform="translate(-45.014 -73.442)"/><path class="d" d="M810.273,188.812v-29.1a9.175,9.175,0,0,1,2.775-6.6,9.158,9.158,0,0,1,13.35.075,9.374,9.374,0,0,1,2.625,6.375,7.4,7.4,0,0,1-1.2,4.2Zm27,0v-29.1a9.309,9.309,0,0,1,2.7-6.6,8.583,8.583,0,0,1,6.449-2.85,8.745,8.745,0,0,1,6.825,2.925,9.369,9.369,0,0,1,2.625,6.375,7.392,7.392,0,0,1-1.2,4.2Z" transform="translate(-45.014 -73.442)"/><path class="d" d="M156.585,139.187h40.2v7.05h-7.049c-10.05,0-11.55,2.7-11.55,10.65v94.5c0,7.949,1.5,10.649,11.55,10.649h7.049v7.05h-40.2Z" transform="translate(-45.014 -73.442)"/><path class="d" d="M855.713,269.082v-7.05h7.05c10.048,0,11.548-2.7,11.548-10.649v-94.5c0-7.951-1.5-10.65-11.548-10.65h-7.05v-7.05h40.2V269.082Z" transform="translate(-45.014 -73.442)"/></svg>