<?xml version="1.0" encoding="utf-8"?>
<!-- Generator: Adobe Illustrator 22.0.0, SVG Export Plug-In . SVG Version: 6.00 Build 0)  -->
<svg version="1.1" id="Layer_1" xmlns="http://www.w3.org/2000/svg" xmlns:xlink="http://www.w3.org/1999/xlink" x="0px" y="0px"
	 viewBox="0 0 462 408.7" style="enable-background:new 0 0 462 408.7;" xml:space="preserve">
<style type="text/css">
	.st0{fill:#303632;stroke:#DEDEDD;stroke-width:7;stroke-miterlimit:10;}
	.st1{fill:#DEDEDD;}
	.st2{fill:#F39516;}
	.st3{fill:#2F3631;}
</style>
<g>
	<path class="st0" d="M230.9,13.4C123.3,13.4,36.2,100.5,36.2,208s87.2,194.7,194.7,194.7S425.5,315.6,425.5,208
		S338.4,13.4,230.9,13.4z"/>
	<path class="st1" d="M103.4,302.1l5.9,6.8l-6.8,10.5l11.4-5.2l6,6.9l-2.1,1.8l-0.6-0.7c-0.3-0.4-0.7-0.6-1-0.6s-0.7,0.2-1.1,0.6
		l-8.5,7.4c-0.4,0.3-0.6,0.5-0.6,0.7c-0.1,0.2-0.1,0.4-0.1,0.5c0.1,0.2,0.2,0.5,0.4,0.7l0.7,0.8l-2.1,1.8l-6.2-7.2l2-1.9l0.5,0.6
		c0.4,0.4,0.6,0.7,0.8,0.7s0.4,0.1,0.6,0.1s0.5-0.2,0.8-0.5l9.2-8L97.1,325l-1.8-2.1l8.9-13.9l-9.1,7.9c-0.2,0.2-0.3,0.4-0.4,0.5
		s0,0.4,0,0.5c0.1,0.2,0.2,0.4,0.5,0.7l0.6,0.7l-2.1,1.8l-5.3-6.1l2.1-1.8l0.5,0.6c0.3,0.4,0.6,0.6,0.8,0.7s0.4,0.1,0.6,0
		s0.5-0.3,0.9-0.6l8.4-7.3c0.4-0.3,0.6-0.6,0.7-0.7c0.1-0.2,0.1-0.4,0.1-0.6s-0.2-0.4-0.4-0.7l-0.7-0.8L103.4,302.1L103.4,302.1z
		 M127.3,327.2l3.4,2.9l-5.3,15.5c-0.3,0.8-0.4,1.4-0.3,1.7c0.1,0.3,0.4,0.7,0.9,1.1l-1.8,2.1l-7.1-6l1.8-2.1l0.4,0.4
		c0.4,0.3,0.7,0.5,1,0.5c0.2,0,0.4,0,0.6-0.2c0.1-0.1,0.3-0.5,0.5-1l0.7-1.8l-4.6-3.9l-1.9,1c-0.4,0.2-0.6,0.4-0.7,0.5
		s-0.1,0.3-0.1,0.4c0,0.2,0.1,0.3,0.2,0.5c0.1,0.1,0.4,0.4,1,0.9l-1.8,2.1l-5.8-4.9l1.8-2.1c0.4,0.3,0.7,0.5,0.9,0.6
		c0.2,0.1,0.5,0.1,0.7,0.1s0.6-0.2,1-0.4L127.3,327.2L127.3,327.2z M119.9,335l3,2.5l2-5.4L119.9,335z M143,350.3l8.2,5.1l-1.5,2.3
		l-0.6-0.4c-0.4-0.3-0.7-0.4-0.9-0.4s-0.4,0-0.5,0.1c-0.2,0.1-0.4,0.4-0.7,0.8l-3.3,5.2l-2.5-1.5l0.1-1.6c-1.1,0-2.1-0.1-3-0.4
		c-1-0.3-1.9-0.7-2.8-1.2c-1.5-1-2.7-2.2-3.5-3.7s-1.1-3.2-1-5s0.7-3.5,1.7-5.2c1-1.6,2.3-2.9,3.9-3.7c1.5-0.8,3.2-1.2,5-1.2
		c1.8,0.1,3.4,0.6,4.9,1.5c0.7,0.5,1.4,1,2,1.7c0.6,0.6,1.1,1.3,1.4,1.9l0.9-0.5l1.7,1.1l-2,6.5l-2.7-0.7c0-1.7-0.1-2.9-0.2-3.6
		c-0.2-0.7-0.4-1.4-0.8-2s-0.9-1.1-1.4-1.4c-0.8-0.5-1.6-0.7-2.5-0.7s-1.9,0.3-2.8,0.9c-0.9,0.6-1.8,1.5-2.5,2.7
		c-0.8,1.3-1.3,2.6-1.5,3.8c-0.2,1.2-0.1,2.3,0.3,3.2s1,1.6,1.8,2.1c0.6,0.4,1.2,0.6,1.9,0.7s1.2,0.1,1.6-0.1c0.4-0.2,0.7-0.5,1-1
		l0.4-0.6c0.3-0.4,0.4-0.7,0.4-0.9c0-0.2,0-0.4-0.1-0.6s-0.4-0.4-0.8-0.7l-0.9-0.6L143,350.3L143,350.3z M157.9,348.2l8.7,4.2
		l-1.2,2.5l-0.8-0.4c-0.5-0.2-0.8-0.3-1-0.3s-0.4,0.1-0.5,0.2c-0.2,0.1-0.4,0.5-0.6,0.9l-4.8,9.8c-0.3,0.5-0.4,0.9-0.4,1.1
		s0,0.3,0.1,0.5s0.4,0.4,0.7,0.5l0.9,0.5l-1.2,2.5l-8.7-4.2l1.2-2.5l0.7,0.3c0.5,0.2,0.9,0.4,1,0.4c0.2,0,0.4-0.1,0.5-0.2
		s0.3-0.4,0.6-0.9l4.8-9.9c0.3-0.6,0.4-0.9,0.4-1.1s0-0.4-0.2-0.6c-0.1-0.1-0.4-0.3-0.8-0.5l-0.8-0.4L157.9,348.2L157.9,348.2z
		 M183.3,358.8l1.9,0.7l-0.5,7.3l-2.7-0.2c-0.3-1.9-0.6-3.3-1.1-4.2c-0.7-1.3-1.6-2.1-2.8-2.5c-0.9-0.3-1.8-0.4-2.7-0.1
		c-0.9,0.2-1.8,0.7-2.5,1.5s-1.4,1.8-1.8,3.1c-0.7,1.9-0.8,3.7-0.2,5.5s1.6,2.9,3.2,3.5c1,0.4,2.1,0.4,3.3,0.2
		c1.5-0.3,2.9-0.9,4.2-1.9l1.5,2.3c-2,1.4-3.7,2.2-5,2.5c-2.1,0.5-4.2,0.4-6.3-0.4c-1.8-0.6-3.2-1.6-4.3-2.9s-1.8-2.9-2.1-4.7
		c-0.3-1.8-0.1-3.6,0.5-5.4s1.6-3.3,3-4.4c1.3-1.2,2.9-1.9,4.6-2.2c1.7-0.3,3.4-0.2,5.2,0.5c1.8,0.6,3.2,1.6,4.3,2.8L183.3,358.8
		L183.3,358.8z M200.1,363.5l8.9,1l2,12.4l4.9-11.5l9,1l-0.3,2.7l-1-0.1c-0.5-0.1-0.9,0-1.1,0.2c-0.2,0.2-0.4,0.6-0.4,1.2l-1.3,11.1
		c-0.1,0.5-0.1,0.8,0,0.9c0.1,0.2,0.2,0.3,0.3,0.4c0.2,0.1,0.5,0.2,0.8,0.3l1.1,0.1l-0.3,2.8l-9.4-1.1l0.3-2.7l0.7,0.1
		c0.5,0.1,0.9,0.1,1.1,0c0.2-0.1,0.4-0.2,0.5-0.3c0.1-0.2,0.2-0.5,0.2-0.9l1.4-12.1l-6.7,15.7l-2.7-0.3l-2.8-16.3l-1.4,11.9
		c0,0.3,0,0.5,0.1,0.7s0.2,0.3,0.4,0.4s0.5,0.2,0.9,0.2l0.9,0.1l-0.3,2.7l-8.1-0.9l0.3-2.7l0.8,0.1c0.5,0.1,0.8,0.1,1,0
		s0.3-0.2,0.5-0.4c0.1-0.2,0.2-0.5,0.3-1l1.3-11c0.1-0.5,0.1-0.8,0-1s-0.2-0.4-0.3-0.5s-0.4-0.2-0.8-0.2l-1.1-0.1L200.1,363.5
		L200.1,363.5z M227.5,366.2l16.5-0.6l2.5,6.2l-2.5,1c-0.5-1-1-1.8-1.6-2.4s-1.3-1-2-1.2s-1.5-0.2-2.5-0.2l-3,0.1l0.2,4.9h1
		c0.7,0,1.2-0.1,1.5-0.2s0.4-0.3,0.5-0.5s0.1-0.7,0.1-1.4v-0.8l2.5-0.1l0.3,8.4l-2.5,0.1v-0.9c0-0.6-0.1-1-0.3-1.3
		c-0.1-0.3-0.3-0.4-0.6-0.5s-0.8-0.1-1.6-0.1h-0.9l0.2,4.5c0,0.5,0.1,0.8,0.1,0.9c0.1,0.1,0.1,0.2,0.3,0.2c0.1,0.1,0.4,0.1,0.9,0.1
		l1.7-0.1c1.2,0,2.3-0.3,3.1-0.6c0.8-0.4,1.6-1,2.2-1.8s1.1-1.8,1.4-2.9l2.6,0.8l-2.3,7.4l-17.1,0.6l-0.1-2.7h0.5
		c0.7,0,1.1-0.1,1.3-0.2s0.4-0.3,0.5-0.5c0-0.1,0.1-0.5,0-1.2l-0.4-10.8c0-0.6-0.1-1-0.2-1.1c-0.1-0.2-0.2-0.3-0.4-0.4
		s-0.5-0.1-1-0.1h-0.9V366.2L227.5,366.2z M248.7,365.3l12-2.1c0.8-0.1,1.6-0.2,2.6-0.2c0.9,0,1.8,0.1,2.6,0.5
		c0.8,0.3,1.5,0.8,2,1.5s0.9,1.4,1.1,2.3c0.3,1.5,0,2.8-0.9,3.9s-2,1.9-3.4,2.5l4.8,3.9l0.2,0.2c0.3,0.3,0.6,0.5,0.8,0.6
		s0.5,0.2,0.7,0.2s0.5,0,0.9-0.1l0.8-0.1l0.5,2.7l-6.2,1.1l-7.7-7.3l-1.6,0.3l0.7,3.9c0.1,0.7,0.2,1.1,0.3,1.3
		c0.1,0.2,0.2,0.3,0.4,0.3c0.2,0.1,0.5,0,1,0l0.9-0.2l0.5,2.7l-9.5,1.7l-0.5-2.7l0.9-0.2c0.5-0.1,0.8-0.2,0.9-0.3
		c0.2-0.1,0.3-0.3,0.3-0.5c0-0.1,0-0.5-0.1-1.1l-2-11c-0.1-0.4-0.2-0.7-0.3-0.9c-0.1-0.2-0.2-0.3-0.4-0.3c-0.2-0.1-0.5-0.1-0.8,0
		l-0.4,0.1l-0.7,0.1L248.7,365.3L248.7,365.3z M256.5,367.2l0.9,5l2.9-0.5c1.1-0.2,2-0.5,2.5-0.8s0.9-0.7,1.1-1.1
		c0.2-0.4,0.3-0.9,0.2-1.5c-0.1-0.5-0.3-0.9-0.6-1.2c-0.3-0.3-0.8-0.5-1.3-0.6s-1.3,0-2.4,0.2L256.5,367.2L256.5,367.2z
		 M285.9,356.2l1.9-0.6l4.1,6.1l-2.3,1.6c-1.4-1.3-2.5-2.2-3.5-2.6c-1.3-0.6-2.6-0.7-3.8-0.3c-0.9,0.3-1.6,0.8-2.2,1.5
		s-1,1.6-1.1,2.7s0,2.3,0.4,3.5c0.6,1.9,1.7,3.4,3.2,4.5s3,1.3,4.7,0.8c1-0.3,2-1,2.7-1.9c1-1.1,1.7-2.5,2.1-4l2.6,0.9
		c-0.7,2.3-1.6,4-2.4,5.1c-1.4,1.7-3.1,2.9-5.2,3.6c-1.8,0.6-3.5,0.7-5.2,0.3s-3.2-1.2-4.6-2.4c-1.4-1.2-2.3-2.8-2.9-4.6
		c-0.6-1.8-0.7-3.6-0.4-5.3c0.3-1.7,1.1-3.3,2.2-4.6c1.2-1.3,2.6-2.2,4.4-2.8c1.8-0.6,3.5-0.7,5.1-0.4L285.9,356.2L285.9,356.2z
		 M292,354.1l8.6-4.3l1.2,2.4l-0.8,0.4c-0.4,0.2-0.7,0.4-0.8,0.6c-0.1,0.2-0.2,0.4-0.1,0.6c0,0.2,0.2,0.6,0.4,1.1l1.5,3.1l6.4-3.2
		l-1.7-3.3c-0.2-0.4-0.4-0.7-0.5-0.8c-0.2-0.2-0.4-0.2-0.6-0.2s-0.6,0.1-1.1,0.4l-0.7,0.3l-1.2-2.4l8.6-4.4l1.2,2.4l-0.7,0.4
		c-0.5,0.2-0.8,0.5-0.9,0.6c-0.1,0.2-0.2,0.3-0.2,0.5s0.2,0.6,0.5,1.2l4.8,9.6c0.3,0.6,0.5,1,0.7,1.1s0.4,0.2,0.6,0.2
		s0.6-0.2,1.2-0.5l0.5-0.3l1.2,2.4l-8.6,4.4l-1.2-2.4l0.6-0.3c0.5-0.3,0.9-0.5,1-0.7s0.2-0.4,0.2-0.6s-0.2-0.6-0.5-1.2l-1.9-3.7
		l-6.4,3.2l1.9,3.7c0.3,0.6,0.5,0.9,0.6,1.1c0.2,0.2,0.4,0.2,0.6,0.2s0.6-0.2,1.1-0.4l0.6-0.3l1.2,2.4l-8.6,4.3l-1.2-2.4l0.6-0.3
		c0.5-0.2,0.8-0.5,1-0.6c0.2-0.2,0.2-0.4,0.2-0.6s-0.1-0.5-0.4-1.1l-4.8-9.6c-0.3-0.6-0.5-1-0.7-1.1s-0.3-0.2-0.5-0.2
		s-0.5,0.1-1,0.3l-0.8,0.4L292,354.1L292,354.1z M319.4,338.8l3.6-2.5l13.6,9.1c0.7,0.5,1.2,0.7,1.6,0.7c0.3,0,0.7-0.2,1.3-0.6
		l1.6,2.2l-7.7,5.4l-1.6-2.2l0.5-0.3c0.4-0.3,0.7-0.6,0.8-0.8s0.1-0.4,0-0.6c-0.1-0.1-0.4-0.4-0.8-0.7l-1.5-1.1l-4.9,3.4l0.5,2.1
		c0.1,0.4,0.2,0.7,0.3,0.8c0.1,0.1,0.2,0.2,0.4,0.2s0.4,0,0.6-0.1s0.5-0.3,1.1-0.7l1.6,2.2l-6.3,4.4l-1.6-2.2
		c0.4-0.3,0.7-0.5,0.8-0.7c0.1-0.2,0.2-0.4,0.2-0.6s0-0.6-0.1-1.1L319.4,338.8L319.4,338.8z M325,347.9l3.2-2.2l-4.7-3.4L325,347.9z
		 M331,330.5l5.9-5.4l12.1,4.5l-4.8-5.2l-0.8-0.8c-0.2-0.1-0.4-0.1-0.6-0.1s-0.4,0.2-0.8,0.5l-0.7,0.7l-1.9-2l6-5.5l1.9,2l-0.7,0.6
		c-0.3,0.3-0.5,0.6-0.6,0.8c-0.1,0.2-0.1,0.4,0,0.6s0.3,0.5,0.7,0.9l10.4,11.2l-3,2.8l-15.3-5.7l6.9,7.5l0.8,0.8
		c0.2,0.1,0.3,0.1,0.5,0s0.5-0.2,0.8-0.5l0.7-0.6l1.9,2l-6,5.6l-1.9-2l0.6-0.6c0.3-0.3,0.6-0.6,0.6-0.7c0.1-0.2,0.1-0.4,0-0.6
		s-0.2-0.5-0.5-0.8l-7.7-8.3c-0.3-0.3-0.5-0.5-0.8-0.6c-0.2-0.1-0.4-0.1-0.6-0.1s-0.4,0.2-0.7,0.4l-0.8,0.7L331,330.5L331,330.5z
		 M347.2,314l1.2-1.4l0.6,0.3l7.1-8.6l-0.4-0.6l1.2-1.5l6.9,2.5l-1,2.6c-1.3-0.3-2.1-0.4-2.5-0.5c-0.9-0.1-1.6,0-2.4,0.3
		c-0.5,0.2-1,0.5-1.3,0.8c-0.1,0.2-0.2,0.3-0.2,0.5c0,0.1,0.2,0.3,0.5,0.6l8.8,7.2c0.5,0.4,0.9,0.7,1,0.7c0.2,0.1,0.3,0.1,0.5,0.1
		c0.1,0,0.3-0.1,0.5-0.2s0.5-0.5,1.1-1.2l2.1,1.7l-6.1,7.4l-2.1-1.7l0.4-0.5c0.4-0.5,0.6-0.8,0.7-1s0-0.4-0.1-0.6s-0.4-0.5-0.9-0.9
		l-9-7.4c-0.3-0.2-0.4-0.3-0.6-0.3s-0.2,0.1-0.4,0.3c-0.3,0.4-0.5,0.9-0.6,1.6s0,1.4,0.2,2.2c0.1,0.3,0.4,1.1,0.9,2.3l-2.4,1.4
		L347.2,314L347.2,314z"/>
	<g>
		<path class="st2" d="M316.8,279.9v-38.5h7c2.4,0,8-0.9,10-3.4c0.3-0.3,1-1.2,0.8-3.5l-37.3-78.8L249.8,280h-38.5l-47.5-124.3
			l-37.3,78.8c-0.2,2.2,0.5,3.1,0.8,3.5c2.1,2.6,8.1,3.4,10,3.4h7v38.5H20l9.9-38.1l4.4-0.8c8.4-1.5,19.8-15.3,24.2-22.1l71.3-140
			c5.6-10.4,7.1-18.9,4.5-24.7c-3.1-6.8-11.4-8.8-11.5-8.8l-8.6-1.8l3.7-8l9.4-20.4h74.4l16.2,35.7l-14,28.4l26.7,77.8l26.7-77.8
			l-14-28.4l16.2-35.7H334l13,28.4l-8.6,1.8c0,0-8.4,2-11.5,8.8c-2.6,5.8-1.1,14.4,4.5,24.7l71.3,140c5.2,7.9,16.1,20.7,24.2,22.1
			l4.4,0.8l9.9,38.1L316.8,279.9L316.8,279.9z"/>
		<path class="st1" d="M329.6,22.2l7.5,16.3c0,0-31.7,6.6-11.7,43.7l71.3,140.3c0,0,14.8,23,29,25.5l6.5,24.9H323.8v-24.5
			c0,0,20.3-0.1,17.6-15.9l-44.8-94.6L245,273h-28.8l-51.6-135.1l-44.8,94.6c-2.7,15.8,17.6,15.9,17.6,15.9v24.5H29l6.5-24.9
			c14.3-2.5,29-25.5,29-25.5l71.4-140.2c19.9-37.1-11.7-43.7-11.7-43.7l7.5-16.3h65.5l13,28.5l-13.8,28l34.3,99.8L265,78.8l-13.8-28
			l13-28.5h65.4 M338.5,8.2H255l-3.7,8.2l-13,28.5l-2.7,6l2.9,5.9l11.3,22.8l-19.2,55.7l-19.2-55.7l11.3-22.7l2.9-5.9l-2.7-6
			l-13-28.5l-3.7-8.2h-83.5l-3.7,8.2l-7.5,16.3l-7.6,16.5l17.3,3c0.7,0.2,5.2,1.6,6.7,4.9c1.6,3.6,0,10.4-4.3,18.5l-0.1,0.1
			l-0.1,0.1l-71,139.6c-5.5,8.3-14.8,17.9-19.3,18.7l-8.9,1.6l-2.3,8.7l-6.5,24.9l-4.6,17.5h140.5v-52.7l-13.9,0.2
			c-0.9,0-2-0.2-2.9-0.4l28.6-60.5L203,277.9l3.4,9h48l3.4-9l39.9-104.4l28.6,60.5c-1.1,0.3-2.2,0.4-2.9,0.4l-13.9,0.1v52.4H450
			l-4.6-17.5l-6.5-24.9l-2.3-8.7l-8.8-1.6c-4.5-0.8-13.9-10.6-19.3-18.7l-71-139.6l-0.1-0.1l-0.1-0.1c-4.3-8.1-5.9-14.8-4.3-18.5
			c1.5-3.3,5.9-4.7,6.7-4.9l17.8-3.1l-8.1-16.4l-7.5-16.3L338.5,8.2L338.5,8.2z"/>
		<path class="st3" d="M329.6,22.2l7.5,16.3c0,0-31.7,6.6-11.7,43.7l71.3,140.3c0,0,14.8,23,29,25.5l6.5,24.9H323.8v-24.5
			c0,0,20.3-0.1,17.6-15.9l-44.8-94.6L245,273h-28.8l-51.6-135.1l-44.8,94.6c-2.7,15.8,17.6,15.9,17.6,15.9v24.5H29l6.5-24.9
			c14.3-2.5,29-25.5,29-25.5l71.4-140.2c19.9-37.1-11.7-43.7-11.7-43.7l7.5-16.3h65.5l13,28.5l-13.8,28l34.3,99.8L265,78.8l-13.8-28
			l13-28.5h65.4 M334.1,15.2h-74.5l-1.9,4.1l-13,28.5l-1.4,3l1.5,3l12.5,25.4L230.6,157l-26.7-77.8l12.5-25.4l1.5-3l-1.4-3l-13-28.5
			l-1.8-4.1h-74.5l-1.9,4.1l-7.5,16.3l-3.7,8.1l8.6,1.7c0.5,0.1,8.5,2.2,11.5,8.8c2.6,5.8,1.1,14.4-4.5,24.7v0.2L58.4,219
			c-5.2,7.9-16.1,20.7-24.2,22.1l-4.4,0.8l-1.1,4.3l-6.5,24.9l-2.3,8.8h124.5v-38.5h-7c-2.4,0-8-0.9-10-3.4c-0.3-0.3-1-1.2-0.8-3.5
			l37.3-78.8l45.8,119.7l1.7,4.5h38.4l1.7-4.5l45.7-119.8l37.3,78.8c0.2,2.2-0.5,3.1-0.8,3.5c-2.1,2.5-7.7,3.4-10.1,3.4h-7v38.5
			h124.5l-2.3-8.8l-6.5-24.9l-1.1-4.3l-4.4-0.8c-8.4-1.5-19.7-15.3-24.2-22.1l-71-139.8v-0.2c-5.6-10.4-7.1-19-4.4-24.8
			c3.2-6.8,11.4-8.7,11.4-8.7l8.6-1.8l-3.7-8L336,19.3C336,19.3,334.1,15.2,334.1,15.2z"/>
	</g>
</g>
</svg>
