<?xml version="1.0" encoding="UTF-8"?>
<svg width="187px" height="94px" viewBox="0 0 187 94" version="1.1" xmlns="http://www.w3.org/2000/svg" xmlns:xlink="http://www.w3.org/1999/xlink">
    <!-- Generator: Sketch 51.3 (57544) - http://www.bohemiancoding.com/sketch -->
    <title>Logo outlinesmtglabs_logo</title>
    <desc>Created with Sketch.</desc>
    <defs></defs>
    <g id="Page-1" stroke="none" stroke-width="1" fill="none" fill-rule="evenodd">
        <g id="Logo-outlines">
            <path d="M12.90625,48.6894531 C13.4218776,46.8378814 14.0605431,44.8515731 14.8222656,42.7304688 L18.8828125,31.4804688 L24.9296875,31.4804688 L24.9296875,55 L20.6230469,55 L20.6230469,43.0820312 C20.6230469,41.3359288 20.6933587,39.3086053 20.8339844,37 L20.6757812,37 C20.4765615,37.6679721 20.2421888,38.4179646 19.9726562,39.25 C19.7031237,40.0820354 19.4218765,40.9023397 19.1289062,41.7109375 L14.2597656,55 L11.4824219,55 L6.61328125,41.7109375 C6.32031104,40.9023397 6.03906385,40.0820354 5.76953125,39.25 C5.49999865,38.4179646 5.265626,37.6679721 5.06640625,37 L4.90820312,37 C5.04882883,39.1679796 5.11914062,41.1894437 5.11914062,43.0644531 L5.11914062,55 L0.8125,55 L0.8125,31.4804688 L6.82421875,31.4804688 L10.8847656,42.6777344 C11.5644565,44.5410249 12.203122,46.5449112 12.8007812,48.6894531 L12.90625,48.6894531 Z M41.4967789,55 L37.1901383,55 L37.1901383,35.0839844 L29.5963883,35.0839844 L29.5963883,31.4804688 L49.0729508,31.4804688 L49.0729508,35.0839844 L41.4967789,35.0839844 L41.4967789,55 Z M67.4857453,46.0175781 L62.2123078,46.0175781 L62.2123078,42.4140625 L71.7923859,42.4140625 L71.7923859,54.2792969 C71.4408216,54.4082038 70.9925839,54.542968 70.4476593,54.6835938 C69.9027347,54.8242195 69.2933658,54.9501948 68.6195343,55.0615234 C67.9457028,55.1728521 67.2513738,55.2636715 66.5365265,55.3339844 C65.8216792,55.4042972 65.1127019,55.4394531 64.4095734,55.4394531 C62.3001878,55.4394531 60.4574328,55.1552763 58.8812531,54.5869141 C57.3050733,54.0185518 55.9925864,53.2187552 54.9437531,52.1875 C53.8949197,51.1562448 53.1097713,49.9287181 52.5882843,48.5048828 C52.0667973,47.0810476 51.8060578,45.5078211 51.8060578,43.7851562 C51.8060578,42.5664002 51.9437517,41.4033258 52.2191437,40.2958984 C52.4945357,39.188471 52.8988285,38.1630907 53.4320343,37.2197266 C53.9652401,36.2763625 54.6126946,35.4238319 55.3744171,34.6621094 C56.1361397,33.9003868 57.0062482,33.2500027 57.9847687,32.7109375 C58.9632892,32.1718723 60.0355441,31.7587905 61.2015656,31.4716797 C62.367587,31.1845689 63.6185511,31.0410156 64.9544953,31.0410156 C66.1380949,31.0410156 67.2630837,31.1259757 68.3294953,31.2958984 C69.3959068,31.4658212 70.268945,31.6738269 70.9486359,31.9199219 L70.9486359,35.5761719 C70.0345688,35.2832017 69.1117265,35.0605476 68.1800812,34.9082031 C67.2484359,34.7558586 66.3080156,34.6796875 65.3587921,34.6796875 C64.081442,34.6796875 62.8861414,34.8701153 61.7728546,35.2509766 C60.6595678,35.6318378 59.6957103,36.1943322 58.8812531,36.9384766 C58.0667959,37.6826209 57.4252007,38.5996039 56.9564484,39.6894531 C56.487696,40.7793023 56.2533234,42.0390554 56.2533234,43.46875 C56.2650422,46.2461076 56.9915974,48.3290946 58.4330109,49.7177734 C59.8744243,51.1064523 61.9193258,51.8007812 64.5677765,51.8007812 C65.0599665,51.8007812 65.569727,51.7744143 66.0970734,51.7216797 C66.6244198,51.668945 67.0873058,51.6015629 67.4857453,51.5195312 L67.4857453,46.0175781 Z M117.678624,31.4804688 L117.678624,51.3964844 L128.68253,51.3964844 L128.68253,55 L113.371983,55 L113.371983,31.4804688 L117.678624,31.4804688 Z M143.544544,53.1894531 L143.474231,53.1894531 C143.239855,53.4355481 142.958608,53.6874987 142.630481,53.9453125 C142.302354,54.2031263 141.927358,54.4462879 141.505481,54.6748047 C141.083604,54.9033215 140.614859,55.0878899 140.099231,55.2285156 C139.583603,55.3691413 139.026968,55.4394531 138.429309,55.4394531 C137.620711,55.4394531 136.86486,55.3134778 136.161731,55.0615234 C135.458602,54.8095691 134.855093,54.4462914 134.351184,53.9716797 C133.847275,53.4970679 133.451771,52.9228549 133.164661,52.2490234 C132.87755,51.5751919 132.733997,50.8222698 132.733997,49.9902344 C132.733997,49.0761673 132.900987,48.255863 133.234973,47.5292969 C133.568959,46.8027307 134.034775,46.1875025 134.632434,45.6835938 C135.230093,45.179685 135.94493,44.7958998 136.776965,44.5322266 C137.609001,44.2685534 138.528913,44.1367188 139.536731,44.1367188 C140.275016,44.1367188 140.954697,44.1835933 141.575794,44.2773438 C142.19689,44.3710942 142.741807,44.4824212 143.210559,44.6113281 L143.210559,43.9257812 C143.210559,43.5273418 143.143177,43.1435565 143.008411,42.7744141 C142.873644,42.4052716 142.65685,42.0771499 142.35802,41.7900391 C142.05919,41.5029283 141.669546,41.2744149 141.189075,41.1044922 C140.708604,40.9345695 140.122672,40.8496094 139.431262,40.8496094 C138.587508,40.8496094 137.743766,40.9433584 136.900012,41.1308594 C136.056258,41.3183603 135.142205,41.5996075 134.157825,41.9746094 L134.157825,38.7226562 C135.013298,38.3476544 135.921492,38.0605479 136.882434,37.8613281 C137.843376,37.6621084 138.851179,37.5566407 139.905872,37.5449219 C141.148065,37.5449219 142.234969,37.6972641 143.166614,38.0019531 C144.098259,38.3066421 144.877548,38.7255833 145.504504,39.2587891 C146.131461,39.7919949 146.600206,40.4218714 146.910754,41.1484375 C147.221303,41.8750036 147.376575,42.6660113 147.376575,43.5214844 L147.376575,49.9375 C147.376575,51.0625056 147.388293,52.0292928 147.411731,52.8378906 C147.435169,53.6464884 147.458606,54.3671843 147.482044,55 L143.720325,55 L143.544544,53.1894531 Z M143.210559,47.7402344 C142.81212,47.6464839 142.355093,47.5615238 141.839465,47.4853516 C141.323838,47.4091793 140.802359,47.3710938 140.275012,47.3710938 C139.255476,47.3710938 138.44982,47.5732402 137.85802,47.9775391 C137.26622,48.381838 136.970325,48.9999958 136.970325,49.8320312 C136.970325,50.2187519 137.037707,50.5556626 137.172473,50.8427734 C137.307239,51.1298842 137.488878,51.3671866 137.717395,51.5546875 C137.945912,51.7421884 138.212511,51.882812 138.5172,51.9765625 C138.821889,52.070313 139.144151,52.1171875 139.483997,52.1171875 C139.905874,52.1171875 140.304307,52.061524 140.679309,51.9501953 C141.054311,51.8388666 141.400011,51.698243 141.716419,51.5283203 C142.032826,51.3583976 142.317003,51.1679698 142.568958,50.9570312 C142.820912,50.7460927 143.034777,50.5410166 143.210559,50.3417969 L143.210559,47.7402344 Z M169.744447,46.1933594 C169.744447,47.7285233 169.521793,49.0878847 169.076479,50.2714844 C168.631164,51.455084 168.048162,52.4277306 167.327455,53.1894531 C166.606748,53.9511757 165.795233,54.5165997 164.892885,54.8857422 C163.990537,55.2548847 163.082343,55.4394531 162.168275,55.4394531 C161.523741,55.4394531 160.943669,55.3603524 160.428041,55.2021484 C159.912414,55.0439445 159.461246,54.8476574 159.074525,54.6132812 C158.687805,54.3789051 158.362613,54.1328138 158.09894,53.875 C157.835266,53.6171862 157.627261,53.3886729 157.474916,53.1894531 L157.404604,53.1894531 L157.000307,55 L153.554994,55 C153.578432,54.4960912 153.598939,53.872074 153.616518,53.1279297 C153.634096,52.3837853 153.642885,51.6777377 153.642885,51.0097656 L153.642885,29.546875 L157.8089,29.546875 L157.8089,36.6308594 C157.8089,37.1347681 157.805971,37.6005838 157.800111,38.0283203 C157.794252,38.4560568 157.785463,38.7871082 157.773744,39.0214844 L157.8089,39.0214844 C158.078433,38.8339834 158.371399,38.6523446 158.687807,38.4765625 C159.004215,38.3007804 159.349914,38.1425788 159.724916,38.0019531 C160.099918,37.8613274 160.504211,37.7500004 160.937807,37.6679688 C161.371403,37.5859371 161.828429,37.5449219 162.3089,37.5449219 C163.258124,37.5449219 164.180966,37.7177717 165.077455,38.0634766 C165.973944,38.4091814 166.770811,38.9365199 167.46808,39.6455078 C168.165349,40.3544957 168.719055,41.2626898 169.129213,42.3701172 C169.539371,43.4775446 169.744447,44.7519459 169.744447,46.1933594 Z M165.437807,46.4042969 C165.437807,45.3378853 165.308902,44.4209023 165.051088,43.6533203 C164.793274,42.8857383 164.456364,42.2998067 164.040346,41.8955078 C163.624328,41.4912089 163.190739,41.2187507 162.739565,41.078125 C162.28839,40.9374993 161.840153,40.8671875 161.394838,40.8671875 C160.78546,40.8671875 160.164372,40.9902331 159.531557,41.2363281 C158.898741,41.4824231 158.324528,41.8105448 157.8089,42.2207031 L157.8089,50.3769531 C157.972964,50.5644541 158.17511,50.7607412 158.415346,50.9658203 C158.655581,51.1708995 158.92511,51.3583976 159.22394,51.5283203 C159.522769,51.698243 159.847961,51.8388666 160.199525,51.9501953 C160.55109,52.061524 160.926086,52.1171875 161.324525,52.1171875 C162.004216,52.1171875 162.598937,51.9794936 163.108705,51.7041016 C163.618473,51.4287096 164.046203,51.039065 164.391908,50.5351562 C164.737613,50.0312475 164.998353,49.4306675 165.174135,48.7333984 C165.349917,48.0361293 165.437807,47.2597699 165.437807,46.4042969 Z M182.303726,50.0605469 C182.303726,49.6972638 182.201188,49.3984387 181.996109,49.1640625 C181.79103,48.9296863 181.518572,48.7333992 181.178726,48.5751953 C180.838881,48.4169914 180.449236,48.2792975 180.009781,48.1621094 C179.570326,48.0449213 179.110369,47.927735 178.629898,47.8105469 C178.02052,47.6464836 177.434588,47.4560558 176.872086,47.2392578 C176.309583,47.0224599 175.814471,46.738283 175.386734,46.3867188 C174.958998,46.0351545 174.619157,45.5927761 174.367203,45.0595703 C174.115248,44.5263645 173.989273,43.8730507 173.989273,43.0996094 C173.989273,42.1503859 174.159193,41.3271519 174.499039,40.6298828 C174.838884,39.9326137 175.298841,39.355471 175.878922,38.8984375 C176.459003,38.441404 177.132824,38.1015636 177.900406,37.8789062 C178.667988,37.6562489 179.479503,37.5449219 180.334976,37.5449219 C181.37795,37.5449219 182.356456,37.629882 183.270523,37.7998047 C184.18459,37.9697274 185.010754,38.1894518 185.749039,38.4589844 L185.749039,41.8515625 C185.362318,41.7226556 184.955096,41.6025396 184.527359,41.4912109 C184.099623,41.3798823 183.666033,41.2832035 183.226578,41.2011719 C182.787122,41.1191402 182.350603,41.0517581 181.917008,40.9990234 C181.483412,40.9462888 181.073259,40.9199219 180.686539,40.9199219 C180.194349,40.9199219 179.778337,40.9667964 179.438492,41.0605469 C179.098646,41.1542973 178.823259,41.2802726 178.61232,41.4384766 C178.401381,41.5966805 178.249039,41.7783193 178.155289,41.9833984 C178.061538,42.1884776 178.014664,42.4023426 178.014664,42.625 C178.014664,43.0117207 178.117202,43.3281238 178.322281,43.5742188 C178.52736,43.8203137 178.811537,44.0195305 179.17482,44.171875 C179.538103,44.3242195 179.918959,44.4501948 180.317398,44.5498047 L181.477554,44.8398438 C182.063495,44.9804695 182.649426,45.1503896 183.235367,45.3496094 C183.821307,45.5488291 184.348646,45.8271467 184.817398,46.1845703 C185.28615,46.541994 185.669936,47.00488 185.968765,47.5732422 C186.267595,48.1416044 186.417008,48.86523 186.417008,49.7441406 C186.417008,50.7050829 186.235369,51.5429652 185.872086,52.2578125 C185.508803,52.9726598 185.001972,53.5673804 184.351578,54.0419922 C183.701184,54.5166039 182.921895,54.8681629 182.013687,55.0966797 C181.10548,55.3251965 180.106466,55.4394531 179.016617,55.4394531 C177.938486,55.4394531 176.96877,55.354493 176.107437,55.1845703 C175.246105,55.0146476 174.534198,54.8007825 173.971695,54.5429688 L173.971695,51.1855469 C174.885762,51.5253923 175.729504,51.7568353 176.502945,51.8798828 C177.276386,52.0029303 177.997082,52.0644531 178.665054,52.0644531 C179.180682,52.0644531 179.661146,52.0263676 180.106461,51.9501953 C180.551775,51.8740231 180.935561,51.7539071 181.257828,51.5898438 C181.580095,51.4257804 181.834975,51.2177747 182.022476,50.9658203 C182.209977,50.7138659 182.303726,50.4121111 182.303726,50.0605469 Z" id="MTG-Labs" fill="#4A4A4A"></path>
            <g id="Group-20" transform="translate(65.000000, 0.000000)">
                <g id="Group-3" transform="translate(0.000000, 21.000000)">
                    <polygon id="Clip-2" points="0 0.169270461 55.9768163 0.169270461 55.9768163 72.8884722 0 72.8884722"></polygon>
                    <path d="M22.9332757,4.07401004 C22.2418162,4.07401004 21.6792216,4.63846184 21.6792216,5.33220391 C21.6792216,5.57646706 21.748627,5.81183609 21.8798703,6.01271325 C22.0106811,6.21337348 22.1944649,6.37216622 22.4111135,6.47238787 L23.5430054,6.99518911 L23.5430054,29.0062061 L4.52116757,62.0593929 C3.69003243,63.5045804 3.69024865,65.2304753 4.52224865,66.6756628 C5.35403243,68.1208503 6.84376216,68.9837977 8.50732973,68.9837977 L47.4692757,68.9837977 C49.1328432,68.9837977 50.622573,68.1208503 51.454573,66.6756628 C52.286573,65.2304753 52.2867892,63.5045804 51.4554378,62.058959 L32.4338162,29.0062061 L32.4338162,6.99432139 L33.5670054,6.47173708 C34.0106811,6.26695518 34.2976,5.81964557 34.2976,5.33220391 C34.2976,4.99574552 34.166573,4.67837696 33.9287351,4.4391032 C33.6950054,4.20460189 33.3797622,4.07401004 33.0435459,4.07401004 L22.9332757,4.07401004 Z M47.4692757,72.8885373 L8.50732973,72.8885373 C5.43705946,72.8885373 2.68743784,71.2960543 1.15208649,68.6286833 C-0.383481081,65.9608785 -0.38412973,62.7756956 1.15035676,60.1074569 L19.6511135,27.9597359 L19.6511135,9.30484258 C19.2554378,8.97619366 18.9090595,8.58853979 18.6245189,8.15251054 C18.0768432,7.31429311 17.7873297,6.338759 17.7873297,5.33220391 C17.7873297,2.48543182 20.0956541,0.169270461 22.9332757,0.169270461 L33.0435459,0.169270461 C34.4193297,0.169270461 35.7120865,0.705955224 36.6833297,1.68040468 C37.6554378,2.65940967 38.1894919,3.95534935 38.1894919,5.33220391 C38.1894919,6.88433789 37.4861405,8.33646716 36.3257081,9.30332407 L36.3257081,27.959519 L54.8260324,60.1070231 C56.3609514,62.7756956 56.3603027,65.9608785 54.8247351,68.6286833 C53.2893838,71.2960543 50.5397622,72.8885373 47.4692757,72.8885373 Z" id="Fill-1" fill="#4A4A4A"></path>
                </g>
                <path d="M8.34599718,88 C6.60898903,88 5.74822875,86.8642846 5.45898188,86.3758186 C5.16951688,85.8875652 4.5901506,84.5937041 5.45832747,83.1272433 L15.0135083,67 C16.7566242,67.5705147 18.3767121,68.4403158 19.8502133,69.5994129 C24.5261528,73.2760868 30.2613554,75.3009464 35.9993938,75.3009464 C39.101272,75.3009464 42.1259304,74.7217167 44.9016969,73.6089579 L50.5420108,83.1280935 C51.4097514,84.5937041 50.8303851,85.8875652 50.5409201,86.3758186 C50.2516733,86.8642846 49.3911311,88 47.6539048,88 L8.34599718,88 Z" id="Fill-4" fill="#2DA9E0"></path>
                <path d="M39,67.4998889 C39,70.5375588 36.5375588,73 33.5001111,73 C30.4624412,73 28,70.5375588 28,67.4998889 C28,64.4624412 30.4624412,62 33.5001111,62 C36.5375588,62 39,64.4624412 39,67.4998889" id="Fill-6" fill="#2DA9E0"></path>
                <path d="M29,60.9998799 C29,62.6567666 27.6567666,64 25.9998799,64 C24.3429932,64 23,62.6567666 23,60.9998799 C23,59.3432334 24.3429932,58 25.9998799,58 C27.6567666,58 29,59.3432334 29,60.9998799" id="Fill-8" fill="#2DA9E0"></path>
                <path d="M34,58 C34,59.1045638 33.1043845,60 32.0001155,60 C30.8953844,60 30,59.1045638 30,58 C30,56.8954362 30.8953844,56 32.0001155,56 C33.1043845,56 34,56.8954362 34,58" id="Fill-10" fill="#2DA9E0"></path>
                <path d="M26.3180082,1.31800821 C28.0755757,-0.43933607 30.9246475,-0.43933607 32.6819918,1.31800821 C34.4393361,3.07535249 34.4393361,5.92464751 32.6819918,7.68199179 C30.9246475,9.43933607 28.0755757,9.43933607 26.3180082,7.68199179 C24.5606639,5.92464751 24.5606639,3.07535249 26.3180082,1.31800821" id="Fill-12" fill="#2DA9E0"></path>
                <path d="M26.8787912,14.8786023 C28.0502727,13.7071326 29.9499074,13.7071326 31.1213889,14.8786023 C32.2928704,16.050072 32.2928704,17.9496878 31.1213889,19.1213977 C29.9499074,20.2928674 28.0502727,20.2928674 26.8787912,19.1213977 C25.7070696,17.9496878 25.7070696,16.050072 26.8787912,14.8786023" id="Fill-14" fill="#2DA9E0"></path>
                <path d="M28.4392334,10.4392334 C29.0251263,9.85358887 29.9748737,9.85358887 30.5607666,10.4392334 C31.1464111,11.0251263 31.1464111,11.9748737 30.5607666,12.5607666 C29.9748737,13.1464111 29.0251263,13.1464111 28.4392334,12.5607666 C27.8535889,11.9748737 27.8535889,11.0251263 28.4392334,10.4392334" id="Fill-16" fill="#2DA9E0"></path>
                <path d="M22.5857547,11.5857632 C23.366761,10.8047456 24.6330079,10.8047456 25.4142453,11.5857632 C26.1952516,12.3667808 26.1952516,13.6330459 25.4142453,14.4140635 C24.6330079,15.1953122 23.366761,15.1953122 22.5857547,14.4140635 C21.8047484,13.6330459 21.8047484,12.3667808 22.5857547,11.5857632" id="Fill-18" fill="#2DA9E0"></path>
            </g>
        </g>
    </g>
</svg>