<?xml version="1.0" encoding="UTF-8"?>
<svg width="2400px" height="2401px" viewBox="0 0 2400 2401" version="1.1" xmlns="http://www.w3.org/2000/svg" xmlns:xlink="http://www.w3.org/1999/xlink">
    <!-- Generator: Sketch 52.2 (67145) - http://www.bohemiancoding.com/sketch -->
    <title>Sticker Large</title>
    <desc>Created with Sketch.</desc>
    <defs>
        <ellipse id="path-1" cx="1200" cy="1200.55177" rx="1199.75928" ry="1199.57461"></ellipse>
        <linearGradient x1="60.7180491%" y1="22.249941%" x2="40.7810968%" y2="74.7840445%" id="linearGradient-3">
            <stop stop-color="#835288" offset="0%"></stop>
            <stop stop-color="#5F8692" offset="100%"></stop>
        </linearGradient>
    </defs>
    <g id="Page-1" stroke="none" stroke-width="1" fill="none" fill-rule="evenodd">
        <g id="Sticker-Large">
            <mask id="mask-2" fill="white">
                <use xlink:href="#path-1"></use>
            </mask>
            <use id="Mask" fill="#000000" opacity="0.0900000036" xlink:href="#path-1"></use>
            <g mask="url(#mask-2)" id="Group">
                <g transform="translate(-312.739965, -301.524260)">
                    <g>
                        <rect id="Gradient" fill="url(#linearGradient-3)" x="177.35572" y="166.897336" width="2670.76849" height="2670.35738"></rect>
                        <ellipse id="Oval" fill="#000000" opacity="0.0900000036" cx="1512.73997" cy="1502.07603" rx="1199.75928" ry="1199.57461"></ellipse>
                        <g id="Clouds" transform="translate(485.120058, 524.741131)">
                            <g id="Colors" transform="translate(0.000000, 0.000000)">
                                <polygon id="Path-2" fill="#BC979D" points="972.889041 62.2517959 972.746406 1949.44261 1197.7624 1984.95312 1493.60658 1915.94906 1642.47616 1537.5778 1496.19437 604.382915 1329.86226 15.0063219"></polygon>
                                <polygon id="Path-3" fill="#AE7F9C" points="983.647752 0.11350536 970.83103 1998.33832 616.262224 1884.18722 688.761265 28.2285352"></polygon>
                                <path d="M594.928189,66.2653183 L594.928189,1860.57467 C594.928189,1860.57467 -29.403068,1532.7901 2.0172583,951.481294 C33.4375846,370.172492 594.928189,66.2653183 594.928189,66.2653183 Z" id="Path-5" fill="#786076"></path>
                                <path d="M753.109767,34.421991 L593.476197,57.0973738 C593.476197,57.0973738 485.590167,111.453098 395.657784,190.093689 C3.44754079,1066.03985 960.756519,790.410695 329.280586,1685.34469 C593.476197,1934.95726 706.389248,1899.89497 706.389248,1899.89497 L753.109767,34.421991 Z" id="Path-4" fill="#947A92"></path>
                            </g>
                        </g>
                        <path d="M1512.73997,432.889967 C922.153901,432.889967 443.3893,911.580872 443.3893,1502.07603 C443.3893,2092.57119 922.153901,2571.26209 1512.73997,2571.26209 C2103.32603,2571.26209 2582.09063,2092.57119 2582.09063,1502.07603 C2582.09063,911.580872 2103.32603,432.889967 1512.73997,432.889967 L1512.73997,432.889967 Z M1564.49654,2373.46267 L1566.84911,2376.67023 C1577.05433,2391.13817 1592.59247,2400.95731 1610.04186,2403.96536 C1627.49125,2406.97342 1645.42094,2402.92371 1659.88262,2392.70802 L1879.52724,2237.88988 C1893.98892,2227.67419 1911.91861,2223.62448 1929.368,2226.63253 C1946.81739,2229.64058 1962.35553,2239.45972 1972.56075,2253.92767 L1974.27171,2256.49371 C1992.78388,2283.13692 1989.44451,2319.23263 1966.35852,2342.0286 C1526.54616,2579.56972 978.067728,2440.90919 704.035362,2022.90138 C430.002995,1604.89357 521.655211,1046.71333 914.972943,738.249506 C941.569243,733.84177 968.33883,745.063317 983.839126,767.11753 C1006.24704,798.788 1050.067,806.345301 1081.79165,784.010669 L1153.22427,733.545087 C1167.68595,723.3294 1185.61563,719.279689 1203.06503,722.287742 C1220.51442,725.295795 1236.05256,735.114932 1246.25778,749.582878 L1247.96874,752.148925 C1258.186,766.608375 1262.23633,784.535301 1259.22782,801.982008 C1256.2193,819.428715 1246.39865,834.96446 1231.92848,845.168112 L734.894291,1196.28881 C720.424118,1206.49247 710.603469,1222.02821 707.594953,1239.47492 C704.586437,1256.92163 708.636772,1274.84855 718.854031,1289.308 L720.564992,1291.87405 C730.770215,1306.34199 746.308352,1316.16113 763.757745,1319.16918 C781.207138,1322.17724 799.136824,1318.12753 813.5985,1307.91184 L1177.17773,1051.30718 C1191.6394,1041.0915 1209.56909,1037.04179 1227.01848,1040.04984 C1244.46787,1043.05789 1260.00601,1052.87703 1270.21123,1067.34498 L1271.9222,1069.91102 C1282.13946,1084.37047 1286.18979,1102.2974 1283.18127,1119.74411 C1280.17276,1137.19081 1270.35211,1152.72656 1255.88194,1162.93021 L675.438394,1572.64231 C660.968221,1582.84596 651.147572,1598.38171 648.139056,1615.82841 C645.13054,1633.27512 649.180875,1651.20205 659.398134,1665.6615 L661.109096,1668.22754 C671.314318,1682.69549 686.852455,1692.51463 704.301848,1695.52268 C721.751241,1698.53073 739.680927,1694.48102 754.142603,1684.26533 L1468.46885,1181.32021 C1482.93052,1171.10452 1500.86021,1167.05481 1518.3096,1170.06286 C1535.759,1173.07092 1551.29713,1182.89005 1561.50236,1197.358 L1565.56589,1203.13161 C1575.78315,1217.59106 1579.83348,1235.51798 1576.82497,1252.96469 C1573.81645,1270.4114 1563.9958,1285.94714 1549.52563,1296.15079 L1036.23731,1657.96336 C1021.76714,1668.16701 1011.94649,1683.70275 1008.93797,1701.14946 C1005.92945,1718.59617 1009.97979,1736.52309 1020.19705,1750.98254 L1021.90801,1753.54859 C1032.11323,1768.01654 1047.65137,1777.83567 1065.10076,1780.84373 C1082.55016,1783.85178 1100.47984,1779.80207 1114.94152,1769.58638 L1350.19866,1603.6487 C1364.66034,1593.43302 1382.59003,1589.38331 1400.03942,1592.39136 C1417.48881,1595.39941 1433.02695,1605.21855 1443.23217,1619.6865 L1444.94313,1622.25254 C1455.16039,1636.71199 1459.21073,1654.63892 1456.20221,1672.08563 C1453.1937,1689.53233 1443.37305,1705.06808 1428.90287,1715.27173 L1024.26058,2000.53057 C1009.79041,2010.73422 999.969759,2026.26997 996.961243,2043.71667 C993.952727,2061.16338 998.003062,2079.09031 1008.22032,2093.54976 L1009.93128,2096.1158 C1020.13651,2110.58375 1035.67464,2120.40289 1053.12403,2123.41094 C1070.57343,2126.41899 1088.50311,2122.36928 1102.96479,2112.1536 L1651.32781,1725.74975 C1665.78949,1715.53407 1683.71917,1711.48435 1701.16857,1714.49241 C1718.61796,1717.50046 1734.1561,1727.3196 1744.36132,1741.78754 L1746.07228,1744.35359 C1756.28954,1758.81304 1760.33987,1776.73997 1757.33136,1794.18667 C1754.32284,1811.63338 1744.50219,1827.16913 1730.03202,1837.37278 L1389.55077,2077.29813 C1375.08059,2087.50178 1365.25995,2103.03753 1362.25143,2120.48423 C1359.24291,2137.93094 1363.29325,2155.85787 1373.51051,2170.31732 L1375.22147,2172.88336 C1385.42669,2187.35131 1400.96483,2197.17045 1418.41422,2200.1785 C1435.86362,2203.18655 1453.7933,2199.13684 1468.25498,2188.92115 L1895.99524,1887.83836 C1910.45692,1877.62267 1928.38661,1873.57296 1945.836,1876.58101 C1963.28539,1879.58907 1978.82353,1889.4082 1989.02875,1903.87615 L1989.02875,1903.87615 C2010.14912,1933.74222 2003.28057,1975.04256 1973.6301,1996.46766 L1580.5368,2280.87116 C1566.10059,2291.1075 1556.32288,2306.65869 1553.35482,2324.10335 C1550.38677,2341.54801 1554.47152,2359.45704 1564.71041,2373.89034 L1564.49654,2373.46267 Z" id="Planetas" fill="#FFFFFF" transform="translate(1512.739965, 1502.076028) rotate(15.000000) translate(-1512.739965, -1502.076028) "></path>
                        <path d="M609.819513,490.260926 L593.870783,522.831691 L558.148884,528.082394 L583.984198,553.433443 L577.881368,589.285898 L609.819513,572.344177 L641.716973,589.285898 L635.614142,553.433443 L661.449457,528.082394 L625.768243,522.831691 L609.819513,490.260926 L609.819513,490.260926 Z M577.881368,500.762331 L581.42101,521.642079 L591.877192,520.124298 L596.515343,510.607399 L577.881368,500.762331 L577.881368,500.762331 Z M641.716973,500.762331 L623.123683,510.607399 L627.761834,520.124298 L638.177331,521.642079 L641.716973,500.762331 L641.716973,500.762331 Z M573.283903,547.116191 L558.148884,561.965835 L579.020563,565.001398 L580.810727,554.499992 L573.283903,547.116191 L573.283903,547.116191 Z M646.355124,547.116191 L638.8283,554.499992 L640.618463,565.001398 L661.449457,561.965835 L646.355124,547.116191 L646.355124,547.116191 Z M609.819513,575.74893 L600.46184,580.671463 L609.819513,599.787303 L619.136501,580.712485 L609.819513,575.74893 L609.819513,575.74893 Z" id="Star" fill-opacity="0.2" fill="#FFFFFF"></path>
                        <path d="M2154.34967,2404.36475 C2156.06412,2407.80558 2158.16232,2411.14737 2160.65051,2414.39011 C2161.70897,2415.75176 2162.92189,2417.17505 2164.28999,2418.64751 C2165.63938,2420.11998 2167.137,2421.59314 2168.75863,2423.04136 C2170.39272,2424.48958 2172.18128,2425.863 2174.13124,2427.16301 C2176.08121,2428.46232 2178.17872,2429.65082 2180.43209,2430.71535 C2177.12096,2432.48563 2173.84031,2434.63892 2170.57836,2437.18837 C2169.22343,2438.25289 2167.80546,2439.4781 2166.3203,2440.87646 C2164.84761,2442.26304 2163.39917,2443.78537 2161.98189,2445.43098 C2160.56462,2447.10153 2159.20276,2448.89674 2157.89701,2450.85195 C2156.59681,2452.79538 2155.41505,2454.86209 2154.35036,2457.05278 C2152.69134,2453.79757 2150.6243,2450.57976 2148.14234,2447.38688 C2146.01297,2444.66427 2143.32112,2441.80523 2140.0654,2438.78481 C2136.81593,2435.76508 2132.87998,2433.07918 2128.26864,2430.71535 C2131.586,2428.99493 2134.86665,2426.86658 2138.12167,2424.3289 C2140.90081,2422.13821 2143.76653,2419.40314 2146.71883,2416.12299 C2149.67668,2412.84285 2152.21406,2408.93175 2154.34967,2404.36475 L2154.34967,2404.36475 Z M2150.53702,2440.99974 C2152.07829,2442.95564 2153.34663,2444.93577 2154.34967,2446.94085 C2155.65542,2444.15591 2157.22163,2441.76714 2159.0469,2439.76206 C2160.87911,2437.74453 2162.66144,2436.06151 2164.37588,2434.69986 C2166.32515,2433.17753 2168.36171,2431.84082 2170.49731,2430.70219 C2167.65653,2429.41465 2165.24246,2427.84314 2163.26825,2426.01122 C2161.28157,2424.1793 2159.61007,2422.40971 2158.25514,2420.68929 C2156.71387,2418.74656 2155.40812,2416.67915 2154.34967,2414.48846 C2153.05016,2417.32257 2151.49019,2419.74875 2149.69539,2421.75382 C2147.88812,2423.77136 2146.13073,2425.4419 2144.41559,2426.81602 C2142.46009,2428.35082 2140.42353,2429.63766 2138.29416,2430.71465 C2141.13494,2432.18781 2143.55525,2433.84589 2145.56687,2435.67781 C2147.57848,2437.50974 2149.23751,2439.29179 2150.53702,2440.99974 L2150.53702,2440.99974 Z" id="Colorless" fill-opacity="0.2" fill="#FFFFFF"></path>
                        <path d="M383.914858,656.22397 C385.629302,659.664798 387.727505,663.006585 390.215701,666.24933 C391.274154,667.610978 392.487081,669.034267 393.855173,670.506731 C395.204562,671.979195 396.70219,673.452351 398.323812,674.900574 C399.957903,676.348797 401.746466,677.72222 403.696431,679.022227 C405.646395,680.321541 407.743905,681.510039 409.997274,682.574563 C406.686145,684.344844 403.405495,686.498132 400.143547,689.047586 C398.788617,690.112109 397.37065,691.337316 395.885491,692.735672 C394.4128,694.122253 392.964354,695.644584 391.54708,697.290198 C390.129806,698.960745 388.767948,700.755959 387.462199,702.711164 C386.161992,704.654595 384.980238,706.721308 383.915551,708.911996 C382.256522,705.656784 380.189491,702.438973 377.70753,699.246095 C375.578155,696.523491 372.886304,693.664446 369.630591,690.644025 C366.381112,687.624297 362.445163,684.938401 357.833827,682.574563 C361.151191,680.854149 364.431841,678.725794 367.686861,676.188115 C370.465993,673.997426 373.331713,671.262356 376.284021,667.982211 C379.241871,664.702065 381.779249,660.790963 383.914858,656.22397 L383.914858,656.22397 Z M380.10221,692.858954 C381.643479,694.814852 382.911821,696.79499 383.914858,698.800062 C385.220607,696.015124 386.786812,693.626353 388.61209,691.621281 C390.444294,689.603742 392.226624,687.920729 393.941068,686.559081 C395.89034,685.03675 397.926892,683.700035 400.062501,682.561404 C397.221718,681.273863 394.807642,679.702358 392.833433,677.870436 C390.846755,676.038513 389.175259,674.268925 387.820328,672.548511 C386.27906,670.605773 384.973311,668.538367 383.914858,666.347679 C382.615344,669.181791 381.055372,671.607962 379.260574,673.613034 C377.453307,675.630573 375.695915,677.30112 373.980777,678.675235 C372.025272,680.210032 369.988719,681.49688 367.859345,682.57387 C370.700127,684.047027 373.120438,685.705107 375.132053,687.537029 C377.143668,689.368952 378.802696,691.151007 380.10221,692.858954 L380.10221,692.858954 Z" id="Colorless" fill-opacity="0.2" fill="#FFFFFF"></path>
                        <path d="M385.322229,2362.64042 C389.734724,2371.49614 395.134906,2380.09695 401.538819,2388.44286 C404.262978,2391.94736 407.384707,2395.6105 410.905789,2399.40021 C414.378735,2403.18991 418.233206,2406.9814 422.406803,2410.70872 C426.612491,2414.43604 431.215749,2417.97084 436.234406,2421.31669 C441.253063,2424.66076 446.651461,2427.71961 452.450996,2430.4594 C443.929085,2435.0156 435.485619,2440.55755 427.090289,2447.11913 C423.60308,2449.85891 419.953634,2453.01225 416.131254,2456.61122 C412.340965,2460.17989 408.613074,2464.09794 404.965411,2468.33328 C401.317748,2472.6328 397.812711,2477.25317 394.452083,2482.28532 C391.105718,2487.28716 388.064216,2492.60629 385.324012,2498.24451 C381.054142,2489.86651 375.734188,2481.58477 369.34632,2473.36721 C363.865911,2466.36 356.937848,2459.00162 348.558563,2451.22791 C340.195324,2443.45598 330.065303,2436.54325 318.197027,2430.4594 C326.734983,2426.03154 335.17845,2420.55375 343.555952,2414.02248 C350.708652,2408.38427 358.084205,2401.34497 365.682612,2392.90281 C373.295281,2384.46064 379.825775,2374.39457 385.322229,2362.64042 L385.322229,2362.64042 Z M375.509552,2456.92851 C379.476341,2461.96244 382.740696,2467.05876 385.322229,2472.21925 C388.682857,2465.0516 392.713827,2458.90358 397.411575,2453.74309 C402.127152,2448.55052 406.714364,2444.21892 411.12686,2440.71442 C416.143734,2436.79637 421.385244,2433.35604 426.881698,2430.42553 C419.570326,2427.11176 413.357176,2423.06715 408.27612,2418.3523 C403.162974,2413.63745 398.861013,2409.08303 395.373805,2404.65517 C391.407016,2399.65511 388.046388,2394.3342 385.322229,2388.69598 C381.977646,2395.99019 377.962721,2402.23447 373.343417,2407.39496 C368.692023,2412.58753 364.168992,2416.88705 359.754713,2420.42363 C354.721794,2424.37376 349.480284,2427.68575 343.999875,2430.45761 C351.311247,2434.2491 357.540443,2438.51653 362.717771,2443.23138 C367.895099,2447.94623 372.164969,2452.53274 375.509552,2456.92851 L375.509552,2456.92851 Z" id="Colorless" fill-opacity="0.289999992" fill="#FFFFFF"></path>
                        <polygon id="Shape" fill-opacity="0.170000002" fill="#FFFFFF" points="2590.27658 458.297013 2670.76849 443.451276 2589.7556 429.647345 2611.89738 397.611808 2580.89888 419.750187 2566.31135 339.010215 2552.50529 420.27109 2520.72532 397.611808 2542.60661 429.647345 2462.1147 443.451276 2542.60661 458.297013 2520.72532 489.030293 2552.50529 467.152365 2566.31135 547.631885 2581.15937 467.673268 2611.89738 489.030293"></polygon>
                        <ellipse id="Star" fill-opacity="0.280000001" fill="#D8D8D8" cx="2657.72763" cy="1155.2425" rx="13.0408618" ry="13.0388544"></ellipse>
                        <ellipse id="Star" fill-opacity="0.429999977" fill="#D8D8D8" cx="623.353193" cy="2537.36107" rx="13.0408618" ry="13.0388544"></ellipse>
                        <ellipse id="Star" fill-opacity="0.340000004" fill="#D8D8D8" cx="545.108022" cy="2631.24082" rx="23.4735512" ry="23.4699379"></ellipse>
                    </g>
                </g>
            </g>
        </g>
    </g>
</svg>