<svg clip-rule="evenodd" fill-rule="evenodd" viewBox="0 0 308 308" xmlns="http://www.w3.org/2000/svg"><path d="m190.353 71.455c5.142-6.651 13.955-9.936 22.578-7.626l95.627 25.623c11.461 3.071 18.273 14.871 15.202 26.332l-37.269 139.094c-3.071 11.461-14.871 18.273-26.332 15.202l-43.388-11.625h-53.132l-80.708 21.625c-11.461 3.071-23.261-3.742-26.332-15.203l-37.27-139.093c-3.071-11.461 3.742-23.261 15.203-26.332l68.601-18.382c3.852-5.795 10.44-9.615 17.912-9.615zm3.258 6c3.273-6.321 10.612-9.748 17.767-7.83l95.627 25.623c8.262 2.214 13.174 10.721 10.96 18.983l-37.27 139.094c-2.214 8.262-10.721 13.174-18.984 10.96l-44.15-11.83h-54.712l-81.471 21.83c-8.262 2.214-16.769-2.698-18.983-10.96l-37.27-139.094c-2.214-8.262 2.697-16.769 10.96-18.983l70.998-19.024c2.509-5.188 7.82-8.769 13.962-8.769zm11.132 15 2.14-7.988c.072-.266.346-.425.613-.353l95.626 25.623c.267.071.425.345.354.612l-37.27 139.093c-.071.267-.346.425-.612.354l-46.058-12.341h-58.662l-83.378 22.341c-.267.071-.541-.087-.613-.354l-37.269-139.093c-.072-.267.087-.541.353-.612l80.204-21.491.376-5.334c.018-.257.236-.457.498-.457zm6.512-1.122-.716 2.675c-.703 2.623-3.08 4.447-5.796 4.447h-78.572l-.015.212c-.18 2.554-1.96 4.712-4.432 5.375l-74.891 20.067 34.422 128.468 78.066-20.918c.507-.136 1.029-.204 1.553-.204h58.662c.524 0 1.046.068 1.553.204l40.745 10.918 34.423-128.468z" transform="translate(-18 -18)"/><g stroke="#fff" stroke-width="15"><path d="m134 29c0-4.415-3.585-8-8-8h-99c-4.415 0-8 3.585-8 8v144c0 4.415 3.585 8 8 8h99c4.415 0 8-3.585 8-8z" transform="matrix(.965926 -.258819 .258819 .965926 -11.48948 81.1958)"/><path d="m198 17c0-4.415-3.585-8-8-8h-99c-4.415 0-8 3.585-8 8v144c0 4.415 3.585 8 8 8h99c4.415 0 8-3.585 8-8z" transform="translate(12.0445 57.9547)"/><path d="m264 21c0-4.415-3.585-8-8-8h-99c-4.415 0-8 3.585-8 8v144c0 4.415 3.585 8 8 8h99c4.415 0 8-3.585 8-8z" transform="matrix(.965926 .258819 -.258819 .965926 43.151 5.6775)"/></g></svg>